<svg width="284" height="46" viewBox="0 0 284 46" version="1.1" xmlns="http://www.w3.org/2000/svg" xmlns:xlink="http://www.w3.org/1999/xlink">
<title>Cenario_TEXT</title>
<desc>Created using Figma</desc>
<g id="Canvas" transform="translate(-466 -110)">
<g id="Cenario_TEXT">
<g id="VR">
<g id="vr-1">
<g id="VR">
<use xlink:href="#path0_fill" transform="translate(703.343 111.705)" fill="#FFFFFF"/>
</g>
<g id="VR">
<use xlink:href="#path1_fill" transform="translate(673.714 105.106)" fill="#FFFFFF"/>
</g>
</g>
</g>
<g id="Cenario">
<use xlink:href="#path2_fill" transform="translate(466 110.962)" fill="#FFFFFF"/>
<use xlink:href="#path3_fill" transform="translate(466 110.962)" fill="#FFFFFF"/>
<use xlink:href="#path4_fill" transform="translate(466 110.962)" fill="#FFFFFF"/>
<use xlink:href="#path5_fill" transform="translate(466 110.962)" fill="#FFFFFF"/>
<use xlink:href="#path6_fill" transform="translate(466 110.962)" fill="#FFFFFF"/>
<use xlink:href="#path7_fill" transform="translate(466 110.962)" fill="#FFFFFF"/>
<use xlink:href="#path8_fill" transform="translate(466 110.962)" fill="#FFFFFF"/>
</g>
</g>
</g>
<defs>
<path id="path0_fill" d="M 0 25.42L 14.3505 25.42L 28.5485 25.42L 42.3745 43.4L 46.4665 43.4L 32.1445 24.862C 39.4605 23.87 44.8545 19.716 44.8545 12.462L 44.8545 12.338C 44.8545 9.238 43.6145 6.324 41.5685 4.278C 38.9645 1.674 34.6865 0 29.3545 0L 11.1265 0L 0 25.42ZM 3.9117 22.506L 12.4071 2.976L 29.1685 2.976C 37.0425 2.976 41.6305 6.634 41.6305 12.462L 41.6305 12.586C 41.6305 18.848 36.2365 22.506 28.9825 22.506L 3.9117 22.506Z"/>
<path id="path1_fill" d="M 21.824 50.31L 24.676 50.31L 43.772 6.6L 40.362 6.6L 23.312 46.528L 6.324 6.6L 2.728 6.6L 21.824 50.31Z"/>
<path id="path2_fill" d="M 22.258 44.888C 30.628 44.888 35.588 41.912 40.052 37.138L 33.976 31C 30.566 34.1 27.528 36.084 22.568 36.084C 15.128 36.084 9.982 29.884 9.982 22.444L 9.982 22.32C 9.982 14.88 15.252 8.804 22.568 8.804C 26.908 8.804 30.318 10.664 33.666 13.702L 39.742 6.696C 35.712 2.728 30.814 0 22.63 0C 9.3 0 0 10.106 0 22.444L 0 22.568C 0 35.03 9.486 44.888 22.258 44.888Z"/>
<path id="path3_fill" d="M 57.506 44.888C 63.52 44.888 67.984 42.532 71.084 38.688L 65.69 33.914C 63.086 36.332 60.792 37.324 57.63 37.324C 53.414 37.324 50.438 35.092 49.508 30.814L 72.634 30.814C 72.696 29.946 72.758 29.078 72.758 28.334C 72.758 18.91 67.674 10.292 56.576 10.292C 46.904 10.292 40.146 18.104 40.146 27.59L 40.146 27.714C 40.146 37.882 47.524 44.888 57.506 44.888ZM 49.384 24.924C 50.128 20.646 52.67 17.856 56.576 17.856C 60.544 17.856 63.024 20.708 63.582 24.924L 49.384 24.924Z"/>
<path id="path4_fill" d="M 75.4414 44.144L 84.8654 44.144L 84.8654 25.606C 84.8654 21.142 87.1594 18.848 90.7554 18.848C 94.3514 18.848 96.4594 21.142 96.4594 25.606L 96.4594 44.144L 105.883 44.144L 105.883 22.63C 105.883 15.004 101.729 10.292 94.5994 10.292C 89.8254 10.292 87.0354 12.834 84.8654 15.624L 84.8654 10.912L 75.4414 10.912L 75.4414 44.144Z"/>
<path id="path5_fill" d="M 119.154 44.764C 123.742 44.764 126.904 43.09 129.198 40.548L 129.198 44.144L 138.312 44.144L 138.312 24.862C 138.312 20.398 137.196 16.74 134.716 14.26C 132.36 11.904 128.64 10.54 123.494 10.54C 117.852 10.54 114.256 11.594 110.598 13.206L 112.954 20.398C 115.992 19.282 118.534 18.6 122.13 18.6C 126.842 18.6 129.26 20.77 129.26 24.676L 129.26 25.234C 126.904 24.428 124.486 23.87 121.138 23.87C 113.264 23.87 107.746 27.218 107.746 34.472L 107.746 34.596C 107.746 41.168 112.892 44.764 119.154 44.764ZM 122.006 38.254C 118.968 38.254 116.86 36.766 116.86 34.224L 116.86 34.1C 116.86 31.124 119.34 29.512 123.37 29.512C 125.664 29.512 127.772 30.008 129.384 30.752L 129.384 32.426C 129.384 35.836 126.408 38.254 122.006 38.254Z"/>
<path id="path6_fill" d="M 142.082 44.144L 151.506 44.144L 151.506 31.868C 151.506 23.932 155.35 20.15 161.612 20.15L 162.108 20.15L 162.108 10.292C 156.528 10.044 153.428 13.02 151.506 17.608L 151.506 10.912L 142.082 10.912L 142.082 44.144Z"/>
<path id="path7_fill" d="M 164.09 44.144L 173.514 44.144L 173.514 10.912L 164.09 10.912L 164.09 44.144Z"/>
<path id="path8_fill" d="M 194.331 44.888C 204.685 44.888 212.373 37.138 212.373 27.59L 212.373 27.466C 212.373 17.918 204.747 10.292 194.455 10.292C 184.101 10.292 176.413 18.042 176.413 27.59L 176.413 27.714C 176.413 37.262 184.039 44.888 194.331 44.888ZM 194.455 36.766C 189.247 36.766 185.713 32.488 185.713 27.59L 185.713 27.466C 185.713 22.568 188.937 18.414 194.331 18.414C 199.539 18.414 203.073 22.692 203.073 27.59L 203.073 27.714C 203.073 32.612 199.849 36.766 194.455 36.766Z"/>
</defs>
</svg>
